<?xml version="1.0" standalone="no"?>
<!DOCTYPE svg PUBLIC "-//W3C//DTD SVG 20010904//EN"
 "http://www.w3.org/TR/2001/REC-SVG-20010904/DTD/svg10.dtd">
<svg version="1.0" xmlns="http://www.w3.org/2000/svg"
 width="700.000000pt" height="700.000000pt" viewBox="0 0 700.000000 700.000000"
 preserveAspectRatio="xMidYMid meet">
<metadata>
Created by potrace 1.14, written by Peter Selinger 2001-2017
</metadata>
<g transform="translate(0.000000,700.000000) scale(0.100000,-0.100000)"
fill="#000000" stroke="none">
<path d="M773 5466 c-8 -11 -7 -2556 1 -2592 3 -16 8 -54 11 -84 30 -283 163
-589 335 -774 101 -107 223 -188 360 -239 62 -22 234 -64 300 -72 87 -10 122
-15 175 -21 28 -4 996 -9 2153 -11 l2102 -4 0 1900 0 1899 -22 3 c-13 3 -248
4 -523 3 l-500 0 -1 -1490 c-1 -819 -2 -1491 -3 -1494 -2 -8 -1108 -6 -1116 2
-4 4 -7 675 -7 1491 0 1372 -1 1485 -17 1489 -13 3 -978 2 -1018 -1 -10 -1
-13 -307 -13 -1494 l0 -1493 -337 2 c-186 1 -354 4 -373 8 -19 3 -46 9 -60 11
-14 3 -34 7 -45 9 -113 22 -250 121 -301 219 -58 112 -57 87 -61 1237 -1 580
-3 1156 -3 1280 l0 225 -516 0 c-284 0 -518 -4 -521 -9z"/>
</g>
</svg>
